<?xml version="1.0" encoding="UTF-8" standalone="no"?>
<!-- Created with Inkscape (http://www.inkscape.org/) -->

<svg
   width="4616.9258mm"
   height="828.41638mm"
   viewBox="0 0 4616.9258 828.41638"
   version="1.1"
   id="svg1"
   xml:space="preserve"
   xmlns="http://www.w3.org/2000/svg"
   xmlns:svg="http://www.w3.org/2000/svg"><defs
     id="defs1" /><g
     id="layer1"
     style="display:inline"
     transform="matrix(1.2564997,0,0,1,-204.78863,-335.79185)"><path
       id="path8"
       style="opacity:1;fill:#660033;fill-opacity:1;stroke:none;stroke-width:0.892111;stroke-linecap:square;stroke-dasharray:none;stroke-opacity:1"
       d="M 456.1347,1164.2083 162.98343,957.10502 V 542.89622 L 456.1347,335.79183 749.2863,542.8962 v 414.20882 z" /><path
       id="path8-8"
       style="display:inline;fill:#ffffff;fill-opacity:1;stroke-width:3.04926;stroke-linecap:square"
       d="m 455.7888,375.31477 -60.32052,42.61499 H 516.80145 L 456.4808,375.31477 Z M 312.87458,476.2802 252.55556,518.89414 H 659.71407 L 599.39512,476.28019 Z M 190.78291,577.24457 v 42.61535 h 530.70388 v -42.61535 z m 0,100.96615 v 42.61427 h 530.70388 v -42.61427 z m 0,100.96475 v 42.61535 h 530.70388 v -42.61535 z m 0,100.96609 v 42.61357 h 530.70388 v -42.61357 z m 61.77345,100.964 60.32142,42.61554 h 286.51414 l 60.32145,-42.61554 z m 142.91542,100.96594 60.31912,42.6139 h 0.6878 l 60.31925,-42.6139 z" /></g><g
     id="layer6"
     style="display:inline"
     transform="translate(-12.413851,-335.79185)"><path
       id="path3"
       style="fill:#ffffff;stroke-width:5.28544;stroke-linecap:square"
       d="M 562.83229,750.00076 A 182.09007,182.09007 0 0 1 380.74334,932.09082 182.09007,182.09007 0 0 1 198.65436,750.00076 182.09007,182.09007 0 0 1 380.74334,567.9107 182.09007,182.09007 0 0 1 562.83229,750.00076 Z" /><path
       id="path3-7"
       style="display:inline;fill:#660033;fill-opacity:1;stroke-width:4.53685;stroke-linecap:square"
       d="M 537.04384,750.00076 A 156.30137,156.30137 0 0 1 380.74344,906.30214 156.30137,156.30137 0 0 1 224.44281,750.00076 156.30137,156.30137 0 0 1 380.74344,593.69939 156.30137,156.30137 0 0 1 537.04384,750.00076 Z" /><path
       style="opacity:1;fill:#ffffff;fill-opacity:1;stroke-width:4.23934;stroke-linecap:square"
       id="path15"
       d="m 1310.9121,758.62637 -53.8174,-30.73382 -16.3226,59.78677 -16.3226,-59.78677 -53.8174,30.73382 30.7338,-53.81745 -59.7868,-16.32259 59.7868,-16.32259 -30.7338,-53.81745 53.8174,30.73382 16.3226,-59.78678 16.3226,59.78677 53.8174,-30.73381 -30.7338,53.81744 59.7868,16.3226 -59.7868,16.32259 z"
       transform="matrix(1.4214345,0,0,1.4214345,-1382.9294,-228.63751)" /><path
       style="fill:#660033;fill-opacity:1;stroke-width:4.23934;stroke-linecap:square"
       id="path15-6"
       d="m 1310.9121,758.62637 -69.3808,-68.30719 -0.7592,97.36014 -0.7592,-97.36014 -69.3808,68.30719 68.3071,-69.38085 -97.3601,-0.75919 97.3601,-0.75919 -68.3071,-69.38085 69.3808,68.30719 0.7592,-97.36015 0.7592,97.36015 69.3808,-68.30719 -68.3072,69.38085 97.3602,0.75919 -97.3602,0.75919 z"
       transform="matrix(1.4214345,0,0,1.4214345,-1382.9294,-228.63751)" /><path
       style="fill:#660033;fill-opacity:1;stroke-width:4.23934;stroke-linecap:square"
       id="path15-6-8"
       d="m 1310.9121,758.62637 -69.3808,-68.30719 -0.7592,97.36014 -0.7592,-97.36014 -69.3808,68.30719 68.3071,-69.38085 -97.3601,-0.75919 97.3601,-0.75919 -68.3071,-69.38085 69.3808,68.30719 0.7592,-97.36015 0.7592,97.36015 69.3808,-68.30719 -68.3072,69.38085 97.3602,0.75919 -97.3602,0.75919 z"
       transform="matrix(0.82051609,0.3398689,-0.3398689,0.82051609,-403.3305,-236.61318)" /></g><g
     id="text8"
     style="font-size:560.992px;line-height:0.8;font-family:'Libertinus Mono';-inkscape-font-specification:'Libertinus Mono';text-align:center;letter-spacing:0px;text-anchor:middle;fill:#660033;stroke-linecap:square"
     aria-label="RAMADI"
     transform="translate(-12.413851,-335.79185)"><path
       d="m 886.37143,854.06404 q 0,21.87869 3.92694,31.97655 3.92695,10.09785 14.5858,12.90281 10.65884,2.80496 30.29356,3.92695 2.80496,2.24396 2.80496,10.09785 0,7.85389 -2.80496,10.65885 -19.07372,-0.56099 -38.70844,-1.12198 -19.63472,0 -35.90349,0 -15.70778,0 -35.3425,0 -19.07373,0.56099 -37.58646,1.12198 -2.24397,-2.80496 -2.24397,-10.65885 0,-7.85389 2.24397,-10.09785 19.63472,-1.12199 29.73257,-3.92695 10.09786,-2.80496 13.46381,-12.90281 3.36595,-10.09786 3.36595,-31.97655 V 647.05799 q 0,-22.43968 -3.36595,-31.97654 -3.36595,-10.09786 -13.46381,-12.90282 -10.09785,-3.36595 -29.73257,-3.92694 -2.24397,-2.80496 -2.24397,-10.65885 0,-7.85389 2.24397,-10.09786 18.51273,0.561 37.58646,1.12199 19.63472,0 34.78151,0 10.65884,0 27.4886,-0.56099 17.39076,-1.12199 33.09853,-1.68298 16.26877,-1.12198 23.00067,-1.12198 17.95175,0 37.58647,1.12198 19.63472,1.12198 38.14742,6.17091 18.5128,4.48794 31.9766,16.82976 15.1468,13.46381 21.8787,30.85456 7.2929,16.82976 7.2929,37.02547 0,20.75671 -8.9759,37.02548 -8.9759,15.70777 -22.4397,26.92761 -12.9028,10.65885 -26.3666,17.39075 -13.4638,6.73191 -22.4397,9.53687 l 76.2949,112.1984 q 11.2199,17.39075 21.8787,27.48861 11.2198,10.09785 27.4886,11.21984 3.927,7.85389 0.561,15.14678 -3.9269,2.24397 -10.6588,2.80496 -6.7319,1.12199 -12.9029,1.12199 -25.2446,0 -43.7573,-14.5858 -17.9518,-14.58579 -30.2936,-33.09852 l -65.63607,-92.56369 q -6.17091,-9.53686 -24.12265,-14.58579 -17.39075,-5.60992 -52.73325,-5.60992 z m 57.78218,-255.81235 q -29.73258,0 -43.75738,10.65885 -14.0248,10.09785 -14.0248,21.87868 v 118.36932 h 38.14746 q 27.4886,0 49.92828,-6.17092 22.43968,-6.7319 35.90353,-24.12265 14.0248,-17.95175 14.0248,-51.05027 0,-23.56167 -7.8539,-37.58647 -7.2929,-14.0248 -19.63475,-20.7567 -11.78083,-6.73191 -25.80563,-8.97587 -14.0248,-2.24397 -26.92761,-2.24397 z M 1218.4784,878.1867 q -3.366,10.65885 1.6829,15.70777 5.61,5.04893 15.7078,6.73191 10.6589,1.68297 21.3177,2.24397 2.805,2.24396 2.805,10.09785 0,7.85389 -2.805,10.65885 -15.7078,-0.56099 -33.0985,-1.12198 -16.8298,0 -33.0985,0 -11.2199,0 -24.6837,0 -13.4638,0.56099 -25.2446,1.12198 -2.244,-2.80496 -2.244,-10.65885 0,-7.85389 2.244,-10.09785 12.3418,-1.12199 20.7567,-3.36596 8.4148,-2.24396 14.5858,-9.53686 6.7319,-7.85389 12.9028,-24.12266 l 110.5154,-283.30096 q 5.6099,0 17.3908,-3.36595 11.7808,-3.36595 17.9517,-7.2929 l 115.5643,302.37469 q 5.049,12.90282 8.9759,18.51274 4.488,5.60992 10.6589,7.2929 6.7319,1.68297 17.3907,2.80496 2.805,2.24396 2.805,10.09785 0,7.85389 -2.805,10.65885 -12.3418,-0.56099 -26.9276,-1.12198 -14.0248,0 -31.4155,0 -16.2688,0 -37.0255,0 -20.7567,0.56099 -36.4645,1.12198 -2.244,-2.80496 -2.244,-10.65885 0,-7.85389 2.244,-10.09785 20.1957,-1.12199 34.7815,-5.04893 14.5858,-3.92695 10.0979,-15.70778 l -33.0986,-88.07574 h -104.3445 q -10.0978,0 -14.0248,1.68297 -3.3659,1.12199 -5.6099,7.2929 z m 54.9772,-106.58848 h 85.8318 l -52.7333,-144.73594 h -1.122 l -46.0013,137.44304 q -1.122,3.92694 1.683,5.60992 3.3659,1.68298 12.3418,1.68298 z m 494.7946,85.83177 -3.366,-224.95779 h -2.8049 l -93.1247,228.88474 q -2.244,5.60992 -6.7319,5.60992 -4.4879,0 -6.7319,-5.60992 l -77.4169,-223.27482 h -3.9269 l -8.9759,215.42093 q -0.561,22.43968 0.561,32.53754 1.6829,10.09785 10.0978,12.90281 8.9759,2.80496 29.1716,3.92695 2.805,2.24396 2.805,10.09785 0,7.85389 -2.805,10.65885 -12.3418,-0.56099 -29.1716,-1.12198 -16.2687,0 -26.3666,0 -10.0979,0 -23.0007,0 -12.3418,0.56099 -25.2446,1.12198 -2.244,-2.80496 -2.244,-10.65885 0,-7.85389 2.244,-10.09785 19.0737,-1.12199 27.4886,-3.36596 8.9759,-2.80496 11.2198,-12.90281 2.805,-10.09786 3.366,-31.97655 l 8.9759,-215.98192 q 0.561,-17.95174 -1.122,-25.80563 -1.122,-8.41488 -9.5369,-10.65885 -7.8539,-2.80496 -27.4886,-3.92694 -2.244,-2.80496 -2.244,-10.65885 0,-7.85389 2.244,-10.09786 l 93.6857,1.12199 65.075,180.07843 q 3.927,9.53686 6.171,10.09786 2.2439,0 6.1709,-10.65885 l 75.7339,-179.51744 76.8559,-1.12199 q 2.805,2.24397 2.805,10.09786 0,7.85389 -2.805,10.65885 -14.5858,0.56099 -20.7567,3.36595 -6.1709,2.24397 -7.8539,9.53686 -1.122,7.2929 -0.561,23.56167 l 4.4879,219.90886 q 0.561,21.87869 2.244,31.97655 2.244,10.09785 10.0979,12.90281 7.8539,2.24397 25.2446,3.36596 2.805,2.24396 2.805,10.09785 0,7.85389 -2.805,10.65885 -14.0248,-0.56099 -31.4155,-1.12198 -16.8298,0 -29.7326,0 -12.3418,0 -29.1716,0 -16.2688,0.56099 -33.6595,1.12198 -2.244,-2.80496 -2.244,-10.65885 0,-7.85389 2.244,-10.09785 19.6347,-1.68298 28.6106,-4.48794 8.9758,-2.80496 11.2198,-11.78083 2.244,-8.97587 1.683,-29.17159 z m 168.2973,20.75671 q -3.366,10.65885 1.6829,15.70777 5.6099,5.04893 15.7078,6.73191 10.6589,1.68297 21.3177,2.24397 2.805,2.24396 2.805,10.09785 0,7.85389 -2.805,10.65885 -15.7078,-0.56099 -33.0985,-1.12198 -16.8298,0 -33.0986,0 -11.2198,0 -24.6836,0 -13.4638,0.56099 -25.2446,1.12198 -2.244,-2.80496 -2.244,-10.65885 0,-7.85389 2.244,-10.09785 12.3418,-1.12199 20.7567,-3.36596 8.4148,-2.24396 14.5858,-9.53686 6.7319,-7.85389 12.9028,-24.12266 l 110.5154,-283.30096 q 5.6099,0 17.3907,-3.36595 11.7809,-3.36595 17.9518,-7.2929 l 115.5643,302.37469 q 5.049,12.90282 8.9759,18.51274 4.4879,5.60992 10.6589,7.2929 6.7319,1.68297 17.3907,2.80496 2.805,2.24396 2.805,10.09785 0,7.85389 -2.805,10.65885 -12.3418,-0.56099 -26.9276,-1.12198 -14.0248,0 -31.4156,0 -16.2687,0 -37.0254,0 -20.7567,0.56099 -36.4645,1.12198 -2.244,-2.80496 -2.244,-10.65885 0,-7.85389 2.244,-10.09785 20.1957,-1.12199 34.7815,-5.04893 14.5858,-3.92695 10.0979,-15.70778 l -33.0986,-88.07574 h -104.3445 q -10.0978,0 -14.0248,1.68297 -3.3659,1.12199 -5.6099,7.2929 z m 54.9772,-106.58848 h 85.8317 l -52.7332,-144.73594 h -1.122 l -46.0013,137.44304 q -1.122,3.92694 1.6829,5.60992 3.366,1.68298 12.3419,1.68298 z"
       id="path2" /><path
       style="letter-spacing:-89.3359px"
       d="m 2292.777,578.61697 q 15.1468,0 41.5134,-0.56099 26.3667,-1.12199 49.3673,-1.12199 49.3673,0 86.3928,19.63472 37.5865,19.63472 58.3432,60.02615 20.7567,39.83043 20.7567,101.53955 0,49.3673 -15.1468,81.34384 -14.5858,31.97654 -38.7084,50.48928 -23.5617,18.51274 -51.0503,26.36662 -27.4886,7.2929 -52.1723,7.2929 -35.9035,0 -60.0261,-0.56099 -24.1227,-0.56099 -38.7085,-0.56099 -20.1957,0 -34.7815,0 -14.0248,0.56099 -33.6595,1.12198 -2.244,-2.80496 -2.244,-10.65885 0,-7.85389 2.244,-10.09785 16.8298,0 25.2446,-2.80496 8.4149,-3.36596 11.2199,-13.46381 2.8049,-10.65885 2.8049,-32.53754 V 647.05799 q 0,-22.43968 -2.8049,-32.53753 -2.805,-10.09786 -11.2199,-12.90282 -8.4148,-3.36595 -25.2446,-3.36595 -2.244,-2.80496 -2.244,-10.65885 0,-7.85389 2.244,-10.09786 19.6347,0.561 33.6595,1.12199 14.5858,0 34.2205,0 z m 23.5617,296.20378 q 0,12.34182 13.4638,20.19571 13.4638,7.85389 47.6843,7.85389 33.0986,0 59.4652,-10.65885 26.9276,-10.65885 42.0744,-38.70845 15.7078,-28.61059 15.7078,-82.46583 0,-39.83043 -5.049,-71.24598 -4.4879,-31.97654 -17.9517,-54.41622 -12.9028,-23.00068 -38.7085,-34.78151 -25.2446,-12.34182 -66.758,-12.34182 -11.7808,0 -23.5617,2.80496 -11.2198,2.80496 -19.0737,8.97587 -7.2929,5.60992 -7.2929,15.14678 z m 377.4091,-20.75671 q 0,16.26877 1.683,25.80563 2.2439,9.53687 10.0978,14.0248 8.4149,4.48794 25.8056,6.17092 17.3908,1.68297 48.2454,2.80496 2.8049,2.24396 2.8049,10.09785 0,7.85389 -2.8049,10.65885 -20.7568,-0.56099 -49.9283,-1.12198 -29.1716,0 -61.7092,0 -32.5375,0 -62.2701,0 -29.1716,0.56099 -49.9283,1.12198 -2.2439,-2.80496 -2.2439,-10.65885 0,-7.85389 2.2439,-10.09785 31.4156,-1.12199 48.8063,-2.80496 17.3908,-1.68298 25.2447,-6.17092 7.8539,-4.48793 9.5369,-14.0248 2.2439,-9.53686 2.2439,-25.80563 V 647.05799 q 0,-16.26877 -2.2439,-25.24464 -1.683,-9.53686 -10.0979,-14.0248 -7.8539,-5.04893 -25.2446,-6.7319 -17.3908,-1.68298 -48.2454,-2.80496 -2.2439,-2.80496 -2.2439,-10.65885 0,-8.41488 2.2439,-10.65885 14.0248,0 35.3425,0.56099 21.8787,0.561 42.6354,1.12199 21.3177,0 33.6596,0 12.9028,0 34.2205,0 21.3177,-0.56099 42.6354,-1.12199 21.8786,-0.56099 35.3425,-0.56099 2.8049,2.24397 2.8049,10.65885 0,7.85389 -2.8049,10.65885 -30.8546,0.56099 -48.8064,2.80496 -17.3907,1.68297 -25.2446,6.17091 -7.8539,4.48794 -10.0978,14.0248 -1.683,9.53686 -1.683,25.80563 z"
       id="path4" /></g><path
     d="m 3061.8571,345.76713 43.1963,136.88205 q 4.488,15.70777 6.171,13.46381 2.2439,-2.24397 5.6099,-16.26877 l 37.0254,-165.49264 q 5.049,-21.87869 4.488,-31.97655 -0.561,-10.65885 -10.6589,-14.58579 -10.0978,-3.92694 -34.7815,-5.60992 -2.2439,-3.36595 -2.2439,-10.09786 0,-7.29289 2.2439,-10.65884 15.7078,0.56099 31.9766,1.12198 16.2687,0 31.9765,0 15.1468,0 21.8787,0 6.7319,-0.56099 17.3908,-1.12198 2.8049,3.36595 2.8049,10.65884 0,6.73191 -2.8049,10.09786 -11.7809,1.68298 -18.5128,5.60992 -6.1709,3.36595 -10.0978,14.58579 -3.927,10.65885 -9.5369,34.78151 l -59.4651,260.86128 q -1.683,8.41488 -5.61,11.21984 -3.3659,3.36595 -7.2929,3.36595 -6.7319,0 -11.2198,-14.0248 l -60.0261,-175.02951 -51.0503,173.90753 q -2.244,8.97587 -6.7319,11.78083 -3.927,3.36595 -7.8539,3.36595 -3.927,0 -8.4149,-3.36595 -4.4879,-2.80496 -6.1709,-10.65885 l -57.2212,-264.78823 q -5.0489,-23.00067 -8.4149,-33.65952 -3.3659,-10.65884 -8.9758,-13.4638 -5.049,-3.36596 -16.2688,-4.48794 -2.244,-3.36595 -2.244,-10.09786 0,-7.29289 2.244,-10.65884 11.2198,0.56099 22.4397,1.12198 11.2198,0 26.9276,0 15.1468,0 31.4155,0 16.8298,-0.56099 32.5376,-1.12198 2.8049,3.36595 2.8049,10.65884 0,6.73191 -2.8049,10.09786 -17.3908,1.12198 -24.6837,5.04893 -7.2929,3.36595 -7.2929,14.0248 0,10.65885 4.488,32.53753 l 30.8545,148.10189 q 5.049,24.12266 7.8539,24.12266 3.366,0 10.0979,-25.80563 l 28.0496,-106.02749 z m 497.5995,65.07507 q 0,38.70845 -8.4148,65.07507 -8.4149,25.80564 -23.5617,48.80631 -20.7567,30.85456 -53.8552,49.36729 -33.0986,17.95175 -75.734,17.95175 -43.7573,0 -80.2218,-19.63472 -35.9035,-20.19571 -57.7822,-58.34317 -21.3177,-38.14746 -21.3177,-92.56368 0,-44.87936 9.5369,-71.80698 10.0978,-27.48861 26.9276,-51.61126 21.3177,-29.73258 53.2942,-46.00135 31.9766,-16.26876 69.563,-16.26876 46.0014,0 82.4659,21.31769 36.4644,20.75671 57.7821,60.02615 21.3177,39.26944 21.3177,93.68566 z M 3391.72,258.25238 q -22.4397,0 -45.4403,16.26876 -22.4397,16.26877 -38.1475,50.48928 -15.1468,33.65952 -15.1468,86.95376 0,48.80631 16.2688,84.14881 16.2688,35.34249 42.6354,54.41622 26.3666,19.07373 56.0992,19.07373 28.0496,0 49.9283,-17.95175 21.8787,-17.95174 34.2205,-51.05027 12.9028,-33.09853 12.9028,-79.09987 0,-52.17226 -15.1468,-88.63674 -14.5858,-36.46448 -40.3914,-55.53821 -25.2446,-19.07372 -57.7822,-19.07372 z m 295.0815,259.73929 q 0,21.87869 3.9269,31.97655 3.927,10.09785 14.5858,12.90281 10.6589,2.80496 30.2936,3.92695 2.8049,2.24397 2.8049,10.09785 0,7.85389 -2.8049,10.65885 -19.0737,-0.56099 -38.7085,-1.12198 -19.6347,0 -35.9035,0 -15.7077,0 -35.3424,0 -19.0738,0.56099 -37.5865,1.12198 -2.244,-2.80496 -2.244,-10.65885 0,-7.85388 2.244,-10.09785 19.6347,-1.12199 29.7326,-3.92695 10.0978,-2.80496 13.4638,-12.90281 3.3659,-10.09786 3.3659,-31.97655 V 310.98562 q 0,-22.43968 -3.3659,-31.97654 -3.366,-10.09786 -13.4638,-12.90282 -10.0979,-3.36595 -29.7326,-3.92694 -2.244,-2.80496 -2.244,-10.65885 0,-7.85389 2.244,-10.09785 18.5127,0.56099 37.5865,1.12198 19.6347,0 34.7815,0 10.6588,0 27.4886,-0.56099 17.3907,-1.12199 33.0985,-1.68298 16.2688,-1.12198 23.0007,-1.12198 17.9517,0 37.5864,1.12198 19.6347,1.12199 38.1475,6.17091 18.5127,4.48794 31.9765,16.82976 15.1468,13.46381 21.8787,30.85456 7.2929,16.82976 7.2929,37.02548 0,20.7567 -8.9759,37.02547 -8.9758,15.70777 -22.4396,26.92761 -12.9029,10.65885 -26.3667,17.39076 -13.4638,6.7319 -22.4396,9.53686 l 76.2949,112.1984 q 11.2198,17.39075 21.8787,27.48861 11.2198,10.09786 27.4886,11.21984 3.9269,7.85389 0.561,15.14678 -3.927,2.24397 -10.6589,2.80496 -6.7319,1.12199 -12.9028,1.12199 -25.2446,0 -43.7574,-14.58579 -17.9517,-14.5858 -30.2936,-33.09853 l -65.636,-92.56368 q -6.1709,-9.53687 -24.1227,-14.58579 -17.3907,-5.60992 -52.7332,-5.60992 z m 57.7822,-255.81235 q -29.7326,0 -43.7574,10.65885 -14.0248,10.09785 -14.0248,21.87869 v 118.36931 h 38.1474 q 27.4886,0 49.9283,-6.17091 22.4397,-6.73191 35.9035,-24.12266 14.0248,-17.95174 14.0248,-51.05027 0,-23.56167 -7.8539,-37.58647 -7.2929,-14.0248 -19.6347,-20.7567 -11.7808,-6.7319 -25.8056,-8.97587 -14.0248,-2.24397 -26.9276,-2.24397 z m 305.7403,255.81235 q 0,21.87869 2.2439,31.97655 2.805,10.09785 11.7809,12.90281 9.5368,2.80496 29.1715,3.92695 2.805,2.24397 2.805,10.09785 0,7.85389 -2.805,10.65885 -18.5127,-0.56099 -36.4644,-1.12198 -17.9518,0 -30.2936,0 -11.2198,0 -29.7326,0 -18.5127,0.56099 -37.5864,1.12198 -2.244,-2.80496 -2.244,-10.65885 0,-7.85388 2.244,-10.09785 17.9517,-1.12199 25.8056,-3.92695 8.4149,-2.80496 10.6588,-12.90281 2.244,-10.09786 2.244,-31.97655 V 310.98562 q 0,-22.43968 -2.805,-31.97654 -2.8049,-10.09786 -11.2198,-12.90282 -7.8539,-2.80496 -24.6836,-3.92694 -2.244,-2.80496 -2.244,-10.65885 0,-7.85389 2.244,-10.09785 18.5127,0.56099 36.4644,1.12198 18.5128,0 30.2936,0 12.9028,0 32.5375,0 19.6348,-0.56099 40.3915,-1.12198 2.8049,2.24396 2.8049,10.09785 0,7.85389 -2.8049,10.65885 -19.6348,0.56099 -30.2936,3.92694 -10.6589,2.80496 -14.5858,12.90282 -3.9269,9.53686 -3.9269,31.97654 v 92.56368 q 16.2687,-1.12198 26.9276,-6.7319 11.2198,-5.60992 20.1957,-15.14678 l 89.7587,-92.56368 q 11.2199,-11.21984 8.9759,-16.82976 -1.683,-5.60992 -10.6589,-7.2929 -8.9758,-2.24397 -19.6347,-2.80496 -2.244,-2.80496 -2.244,-10.65885 0,-7.85389 2.244,-10.09785 16.8298,0.56099 33.0985,1.12198 16.8298,0 27.4887,0 10.0978,0 23.5616,0 13.4638,-0.56099 26.9276,-1.12198 2.805,2.24396 2.805,10.09785 0,7.85389 -2.805,10.65885 -11.7808,0.56099 -19.0737,2.24397 -6.7319,1.68297 -14.5858,7.85389 -7.2929,5.60992 -20.1957,19.07372 l -79.6609,77.97789 q -14.0248,14.0248 -16.8297,19.07373 -2.805,4.48794 -2.805,7.2929 0,5.04892 7.2929,13.4638 l 114.4424,138.56503 q 7.2929,8.41488 11.7808,12.34182 5.0489,3.92695 10.6589,5.04893 6.1709,1.12199 15.7077,1.68298 2.805,2.24397 2.805,10.09785 0,7.85389 -2.805,10.65885 -14.5858,-0.56099 -29.1715,-1.12198 -14.0248,0 -21.8787,0 -5.049,0 -13.4638,0 -8.4149,0.56099 -16.8298,1.12198 -2.805,0 -2.805,-3.36595 -0.561,-6.17091 -6.7319,-15.70778 -5.6099,-10.09785 -13.4638,-20.7567 l -79.6608,-105.4665 q -10.6589,-14.58579 -20.7567,-18.51273 -10.0979,-4.48794 -28.6106,-4.48794 z m 532.942,-267.59318 q 5.049,20.7567 7.8539,34.7815 2.805,14.0248 4.488,33.65952 -4.488,2.80496 -10.6589,3.36595 -5.6099,0 -11.7808,0 -6.7319,-17.95174 -17.9518,-32.53753 -10.6588,-15.14679 -30.8545,-24.12266 -19.6348,-8.97587 -52.7333,-8.97587 -19.6347,0 -37.5864,7.85389 -17.9518,7.29289 -29.1716,21.31769 -10.6589,14.0248 -10.6589,33.65952 0,16.82976 10.6589,29.17159 11.2198,12.34182 28.0496,20.7567 17.3907,8.41488 35.9035,13.46381 19.0737,4.48794 35.3425,6.17091 32.5375,3.36595 57.7821,14.58579 25.2447,11.21984 39.8305,31.97655 15.1467,20.7567 15.1467,52.73325 0,28.0496 -17.3907,49.92829 -17.3908,21.31769 -46.5623,35.90348 -17.3908,8.97588 -39.8305,13.46381 -22.4397,4.48794 -45.4403,4.48794 -30.2936,0 -49.9283,-3.36595 -19.0737,-2.80496 -35.9035,-5.60992 -16.2688,-3.36596 -37.5865,-3.36596 -3.9269,-13.4638 -6.7319,-24.12265 -2.2439,-10.65885 -3.9269,-23.56167 -1.122,-12.90281 -2.805,-33.65952 4.488,-2.24396 10.0979,-2.80496 6.1709,-0.56099 12.3418,1.12199 11.2198,39.83043 41.5134,57.22118 30.8546,16.82976 78.5389,16.82976 40.9524,0 63.9531,-15.70777 23.5616,-15.70778 23.5616,-48.24532 0,-28.61059 -11.7808,-43.75737 -11.7808,-15.70778 -32.5375,-23.00067 -20.7567,-7.2929 -48.8063,-10.09786 -30.2936,-3.36595 -58.3432,-15.14679 -27.4886,-12.34182 -44.8794,-32.53753 -17.3907,-20.75671 -17.3907,-48.80631 0,-35.90348 17.9517,-57.22118 18.5128,-21.3177 48.2454,-30.85456 30.2935,-9.53686 64.514,-9.53686 24.6837,0 38.7085,1.68297 14.5858,1.68298 24.1226,3.92695 9.5369,2.24396 18.5128,5.04892 9.5368,2.24397 24.1226,3.92695 z"
     id="text8-4"
     style="font-size:560.992px;line-height:0.8;font-family:'Libertinus Mono';-inkscape-font-specification:'Libertinus Mono';text-align:center;letter-spacing:0px;text-anchor:middle;fill:#660033;stroke-linecap:square"
     aria-label="WORKS" /></svg>
